<svg xmlns="http://www.w3.org/2000/svg" xmlns:xlink="http://www.w3.org/1999/xlink" width="500" zoomAndPan="magnify" viewBox="0 0 375 374.999991" height="500" preserveAspectRatio="xMidYMid meet" version="1.0"><defs><g/><clipPath id="99e71b1ac7"><path d="M 70.523438 243 L 304 243 L 304 312 L 70.523438 312 Z M 70.523438 243 " clip-rule="nonzero"/></clipPath><clipPath id="02a9288e90"><path d="M 94 63.054688 L 281 63.054688 L 281 240 L 94 240 Z M 94 63.054688 " clip-rule="nonzero"/></clipPath></defs><g clip-path="url(#99e71b1ac7)"><path fill="#431407" d="M 299.398438 261.613281 L 221.324219 261.613281 C 225.179688 257.410156 230.804688 251.0625 236.878906 243.695312 C 220.5 248.574219 204.472656 259.699219 197.132812 265.222656 C 194.34375 267.339844 190.957031 268.484375 187.449219 268.484375 L 187.324219 268.484375 C 183.839844 268.484375 180.429688 267.339844 177.644531 265.222656 C 170.300781 259.671875 154.273438 248.574219 137.898438 243.695312 C 143.96875 251.0625 149.59375 257.410156 153.453125 261.613281 L 75.351562 261.613281 C 72.863281 261.613281 70.847656 265.722656 70.847656 270.796875 C 70.847656 275.875 72.863281 280.007812 75.351562 280.007812 L 154.421875 280.007812 C 152.730469 286.726562 151.609375 294.21875 153.898438 297.527344 C 158.53125 304.222656 187.375 311.9375 187.375 311.9375 C 187.375 311.9375 216.21875 304.222656 220.875 297.503906 C 223.164062 294.195312 222.042969 286.703125 220.351562 279.980469 L 299.421875 279.980469 C 301.910156 279.980469 303.925781 275.875 303.925781 270.773438 C 303.902344 265.722656 301.886719 261.613281 299.398438 261.613281 Z M 299.398438 261.613281 " fill-opacity="1" fill-rule="nonzero"/></g><g clip-path="url(#02a9288e90)"><path fill="#431407" d="M 113.308594 167.1875 C 112.660156 167.8125 88.792969 191.304688 95.910156 216.292969 C 101.832031 237.050781 119.253906 240.308594 132.746094 239.4375 C 133.269531 239.414062 133.789062 239.363281 134.3125 239.316406 C 143.171875 238.519531 149.941406 236.078125 149.941406 236.078125 L 135.359375 226.148438 C 136.15625 226.621094 155.441406 237.894531 167.289062 225.75 C 167.289062 225.75 139.8125 215.046875 126.050781 203.601562 L 120.226562 172.390625 C 141.382812 170.722656 167.589844 188.667969 177.617188 196.207031 C 180.40625 198.324219 183.789062 199.46875 187.300781 199.46875 L 187.425781 199.46875 C 190.933594 199.46875 194.320312 198.324219 197.105469 196.207031 C 207.109375 188.667969 233.34375 170.722656 254.5 172.390625 L 248.675781 203.601562 C 234.910156 215.046875 207.433594 225.75 207.433594 225.75 C 219.28125 237.871094 238.570312 226.621094 239.367188 226.148438 L 224.78125 236.078125 C 224.78125 236.078125 231.578125 238.519531 240.410156 239.316406 C 240.933594 239.363281 241.457031 239.414062 241.980469 239.4375 C 255.46875 240.335938 272.890625 237.050781 278.8125 216.292969 C 285.660156 192.324219 263.980469 169.753906 261.617188 167.386719 L 261.46875 167.238281 C 261.441406 167.214844 261.441406 167.214844 261.417969 167.1875 C 261.417969 167.1875 261.394531 167.164062 261.394531 167.164062 C 266.246094 158.152344 268.984375 148.097656 268.984375 137.523438 C 268.984375 120.375 261.867188 104.644531 250.019531 92.425781 C 250.242188 91.726562 250.464844 91.003906 250.691406 90.257812 C 252.757812 83.191406 255.019531 73.285156 255.21875 63.054688 C 255.21875 63.054688 244.417969 67.136719 228.613281 70.621094 C 225.527344 71.320312 222.242188 71.964844 218.808594 72.5625 C 209.128906 69.078125 198.5 67.136719 187.324219 67.136719 C 176.175781 67.136719 165.546875 69.078125 155.839844 72.5625 C 152.40625 71.964844 149.121094 71.292969 146.035156 70.621094 C 130.304688 67.136719 119.503906 63.054688 119.503906 63.054688 C 119.703125 73.261719 121.96875 83.191406 124.035156 90.257812 C 124.257812 91.03125 124.480469 91.753906 124.707031 92.425781 C 112.882812 104.644531 105.742188 120.347656 105.742188 137.523438 C 105.742188 148.097656 108.480469 158.152344 113.308594 167.1875 C 113.332031 167.164062 113.308594 167.164062 113.308594 167.1875 Z M 142.328125 105.339844 C 170.800781 93.246094 187.375 123.136719 187.375 123.136719 C 187.375 123.136719 203.976562 93.246094 232.449219 105.339844 C 243.421875 109.996094 250.265625 121.417969 250.265625 133.714844 C 250.265625 153.300781 232.921875 175.078125 187.398438 175.078125 C 113.28125 175.078125 113.855469 117.410156 142.328125 105.339844 Z M 142.328125 105.339844 " fill-opacity="1" fill-rule="nonzero"/></g><path fill="#431407" d="M 157.410156 151.90625 C 166.292969 151.90625 173.488281 144.714844 173.488281 135.828125 C 173.488281 126.945312 166.292969 119.75 157.410156 119.75 C 148.523438 119.75 141.332031 126.945312 141.332031 135.828125 C 141.332031 144.714844 148.550781 151.90625 157.410156 151.90625 Z M 157.410156 151.90625 " fill-opacity="1" fill-rule="nonzero"/><path fill="#431407" d="M 217.339844 151.90625 C 226.226562 151.90625 233.417969 144.714844 233.417969 135.828125 C 233.417969 126.945312 226.226562 119.75 217.339844 119.75 C 208.457031 119.75 201.261719 126.945312 201.261719 135.828125 C 201.261719 144.714844 208.457031 151.90625 217.339844 151.90625 Z M 217.339844 151.90625 " fill-opacity="1" fill-rule="nonzero"/><path fill="#431407" d="M 187.375 164.527344 C 187.375 164.527344 199.945312 157.957031 197.878906 151.011719 C 197.179688 148.695312 195.785156 147.054688 194.242188 145.882812 C 190.210938 142.847656 184.539062 142.847656 180.503906 145.882812 C 178.960938 147.054688 177.542969 148.695312 176.871094 151.011719 C 174.804688 157.980469 187.375 164.527344 187.375 164.527344 Z M 187.375 164.527344 " fill-opacity="1" fill-rule="nonzero"/><g fill="#431407" fill-opacity="1"><g transform="translate(215.598593, 175.13694)"><g><path d="M 0.8125 0 L 0.8125 -1.78125 L 2.515625 -1.78125 L 2.515625 0 Z M 0.8125 0 "/></g></g></g></svg>