<svg width="500" height="500" viewBox="0 0 500 500" fill="none" xmlns="http://www.w3.org/2000/svg">
<g clip-path="url(#clip0_27_2)">
<path d="M550 -50H-50V550H550V-50Z" fill="white"/>
<path d="M500 0H0V500H500V0Z" fill="#431407"/>
<mask id="mask0_27_2" style="mask-type:luminance" maskUnits="userSpaceOnUse" x="94" y="324" width="312" height="92">
<path d="M94.0312 324H405.333V416H94.0312V324Z" fill="white"/>
</mask>
<g mask="url(#mask0_27_2)">
<path d="M399.198 348.818H295.099C300.24 343.214 307.74 334.75 315.839 324.927C294 331.432 272.63 346.266 262.844 353.63C259.125 356.453 254.609 357.979 249.932 357.979H249.766C245.12 357.979 240.573 356.453 236.859 353.63C227.068 346.229 205.698 331.432 183.865 324.927C191.958 334.75 199.458 343.214 204.604 348.818H100.469C97.151 348.818 94.4635 354.297 94.4635 361.063C94.4635 367.833 97.151 373.344 100.469 373.344H205.896C203.641 382.302 202.146 392.292 205.198 396.703C211.375 405.63 249.833 415.917 249.833 415.917C249.833 415.917 288.292 405.63 294.5 396.672C297.552 392.26 296.057 382.271 293.802 373.307H399.229C402.547 373.307 405.234 367.833 405.234 361.031C405.203 354.297 402.516 348.818 399.198 348.818Z" fill="#FFFAEB"/>
</g>
<mask id="mask1_27_2" style="mask-type:luminance" maskUnits="userSpaceOnUse" x="125" y="84" width="250" height="236">
<path d="M125.333 84.0729H374.667V320H125.333V84.0729Z" fill="white"/>
</mask>
<g mask="url(#mask1_27_2)">
<path d="M151.078 222.917C150.214 223.75 118.391 255.073 127.88 288.391C135.776 316.068 159.005 320.411 176.995 319.25C177.693 319.219 178.385 319.151 179.083 319.089C190.896 318.026 199.922 314.771 199.922 314.771L180.479 301.531C181.542 302.161 207.255 317.193 223.052 301C223.052 301 186.417 286.729 168.068 271.469L160.302 229.854C188.51 227.63 223.453 251.557 236.823 261.609C240.542 264.432 245.052 265.958 249.734 265.958H249.901C254.578 265.958 259.094 264.432 262.807 261.609C276.146 251.557 311.125 227.63 339.333 229.854L331.568 271.469C313.214 286.729 276.578 301 276.578 301C292.375 317.161 318.094 302.161 319.156 301.531L299.708 314.771C299.708 314.771 308.771 318.026 320.547 319.089C321.245 319.151 321.943 319.219 322.641 319.25C340.625 320.448 363.854 316.068 371.75 288.391C380.88 256.432 351.974 226.339 348.823 223.182L348.625 222.984C348.589 222.953 348.589 222.953 348.557 222.917L348.526 222.885C354.995 210.87 358.646 197.464 358.646 183.365C358.646 160.5 349.156 139.526 333.359 123.234C333.656 122.302 333.953 121.339 334.255 120.344C337.01 110.922 340.026 97.7135 340.292 84.0729C340.292 84.0729 325.891 89.5156 304.818 94.1614C300.703 95.0937 296.323 95.9531 291.745 96.75C278.839 92.1041 264.667 89.5156 249.766 89.5156C234.901 89.5156 220.729 92.1041 207.786 96.75C203.208 95.9531 198.828 95.0573 194.714 94.1614C173.74 89.5156 159.339 84.0729 159.339 84.0729C159.604 97.6823 162.625 110.922 165.38 120.344C165.677 121.375 165.974 122.339 166.276 123.234C150.51 139.526 140.99 160.464 140.99 183.365C140.99 197.464 144.641 210.87 151.078 222.917C151.109 222.885 151.078 222.885 151.078 222.917ZM189.771 140.453C227.734 124.328 249.833 164.182 249.833 164.182C249.833 164.182 271.969 124.328 309.932 140.453C324.562 146.661 333.687 161.891 333.687 178.286C333.687 204.401 310.562 233.437 249.865 233.437C151.042 233.437 151.807 156.547 189.771 140.453Z" fill="#FFFAEB"/>
</g>
<path d="M209.88 202.542C221.724 202.542 231.318 192.953 231.318 181.104C231.318 169.26 221.724 159.667 209.88 159.667C198.031 159.667 188.443 169.26 188.443 181.104C188.443 192.953 198.068 202.542 209.88 202.542Z" fill="#FFFAEB"/>
<path d="M289.786 202.542C301.635 202.542 311.224 192.953 311.224 181.104C311.224 169.26 301.635 159.667 289.786 159.667C277.943 159.667 268.349 169.26 268.349 181.104C268.349 192.953 277.943 202.542 289.786 202.542Z" fill="#FFFAEB"/>
<path d="M249.833 219.37C249.833 219.37 266.594 210.609 263.839 201.349C262.906 198.26 261.047 196.073 258.99 194.51C253.615 190.464 246.052 190.464 240.672 194.51C238.615 196.073 236.724 198.26 235.828 201.349C233.073 210.641 249.833 219.37 249.833 219.37Z" fill="#FFFAEB"/>
<path d="M400.142 184.965V182.59H402.413V184.965H400.142Z" fill="#431407"/>
</g>
<defs>
<clipPath id="clip0_27_2">
<rect width="500" height="500" rx="109" fill="white"/>
</clipPath>
</defs>
</svg>
